<svg xmlns="http://www.w3.org/2000/svg" style="display: none;">
  <defs>
    <!-- Requirement - Document with checkmark -->
    <g id="requirement">
      <rect x="-6" y="-7" width="10" height="12" rx="1" fill="currentColor" opacity="0.15"/>
      <rect x="-6" y="-7" width="10" height="12" rx="1" stroke="currentColor" strokeWidth="1.5" fill="none"/>
      <path d="M-4 -5 L2 -5 M-4 -3 L1 -3 M-4 -1 L2 -1" stroke="currentColor" strokeWidth="0.8" opacity="0.7"/>
      <circle cx="2" cy="2" r="2" fill="currentColor" opacity="0.2"/>
      <path d="M1 2 L1.5 2.5 L3 1" stroke="currentColor" strokeWidth="1.2" fill="none" strokeLinecap="round" strokeLinejoin="round"/>
    </g>

    <!-- Code - Brackets with dots -->
    <g id="code">
      <path d="M-5 -2 L-7 0 L-5 2 M5 -2 L7 0 L5 2" stroke="currentColor" strokeWidth="1.8" fill="none" strokeLinecap="round" strokeLinejoin="round"/>
      <circle cx="-2" cy="-1" r="0.6" fill="currentColor" opacity="0.8"/>
      <circle cx="0" cy="0" r="0.6" fill="currentColor" opacity="0.6"/>
      <circle cx="2" cy="1" r="0.6" fill="currentColor" opacity="0.8"/>
    </g>

    <!-- Test - Flask/beaker -->
    <g id="test">
      <path d="M-2 -6 L-2 -2 L-4 2 Q-4 4 0 4 Q4 4 4 2 L2 -2 L2 -6" fill="currentColor" opacity="0.15"/>
      <path d="M-2 -6 L-2 -2 L-4 2 Q-4 4 0 4 Q4 4 4 2 L2 -2 L2 -6" stroke="currentColor" strokeWidth="1.5" fill="none"/>
      <rect x="-1.5" y="-7" width="3" height="1" rx="0.5" fill="currentColor" opacity="0.6"/>
      <circle cx="-1" cy="0" r="0.5" fill="currentColor" opacity="0.5"/>
      <circle cx="1" cy="1" r="0.4" fill="currentColor" opacity="0.6"/>
    </g>

    <!-- Model - Data structure/schema -->
    <g id="model">
      <rect x="-6" y="-6" width="12" height="12" rx="2" fill="currentColor" opacity="0.1"/>
      <rect x="-6" y="-6" width="12" height="12" rx="2" stroke="currentColor" strokeWidth="1.5" fill="none"/>
      <!-- Schema structure -->
      <rect x="-4" y="-4" width="8" height="1.5" rx="0.3" fill="currentColor" opacity="0.3"/>
      <rect x="-4" y="-1.5" width="6" height="1.5" rx="0.3" fill="currentColor" opacity="0.3"/>
      <rect x="-4" y="1" width="7" height="1.5" rx="0.3" fill="currentColor" opacity="0.3"/>
      <rect x="-4" y="3.5" width="5" height="1.5" rx="0.3" fill="currentColor" opacity="0.3"/>
      <!-- Key indicators -->
      <circle cx="4" cy="-3.2" r="0.6" fill="currentColor"/>
      <circle cx="3" cy="-0.7" r="0.6" fill="currentColor"/>
      <circle cx="4" cy="1.8" r="0.6" fill="currentColor"/>
    </g>

    <!-- Design - Pencil/ruler -->
    <g id="design">
      <!-- Ruler -->
      <rect x="-6" y="-1" width="12" height="2" rx="0.5" fill="currentColor" opacity="0.2"/>
      <rect x="-6" y="-1" width="12" height="2" rx="0.5" stroke="currentColor" strokeWidth="1.2" fill="none"/>
      <!-- Ruler markings -->
      <path d="M-5 -1 L-5 1 M-3 -1 L-3 0.5 M-1 -1 L-1 1 M1 -1 L1 0.5 M3 -1 L3 1 M5 -1 L5 0.5" 
            stroke="currentColor" strokeWidth="0.8" opacity="0.6"/>
      
      <!-- Pencil -->
      <rect x="-1" y="-6" width="2" height="8" rx="1" fill="currentColor" opacity="0.3"/>
      <rect x="-1" y="-6" width="2" height="8" rx="1" stroke="currentColor" strokeWidth="1.2" fill="none"/>
      <!-- Pencil tip -->
      <path d="M-1 2 L0 4 L1 2" fill="currentColor" opacity="0.6"/>
      <!-- Pencil details -->
      <rect x="-0.8" y="-4" width="1.6" height="0.8" rx="0.2" fill="currentColor" opacity="0.5"/>
      <rect x="-0.8" y="-2" width="1.6" height="0.8" rx="0.2" fill="currentColor" opacity="0.5"/>
      <!-- Eraser -->
      <rect x="-0.6" y="-6.5" width="1.2" height="0.8" rx="0.4" fill="currentColor" opacity="0.7"/>
      
      <!-- Design elements around -->
      <circle cx="-4" cy="-4" r="0.8" fill="currentColor" opacity="0.4"/>
      <rect x="2.5" y="-5" width="1.5" height="1.5" rx="0.3" fill="currentColor" opacity="0.4"/>
      <path d="M-5 3 L-3.5 4.5 L-2 3 Z" fill="currentColor" opacity="0.4"/>
    </g>

    <!-- API - Plug/socket connection -->
    <g id="api">
      <!-- Left connector (plug) -->
      <rect x="-7" y="-2" width="4" height="4" rx="2" fill="currentColor" opacity="0.2"/>
      <rect x="-7" y="-2" width="4" height="4" rx="2" stroke="currentColor" strokeWidth="1.5" fill="none"/>
      <!-- Plug pins -->
      <circle cx="-5.5" cy="-0.8" r="0.4" fill="currentColor"/>
      <circle cx="-4.5" cy="-0.8" r="0.4" fill="currentColor"/>
      <circle cx="-5.5" cy="0.8" r="0.4" fill="currentColor"/>
      <circle cx="-4.5" cy="0.8" r="0.4" fill="currentColor"/>
      
      <!-- Right connector (socket) -->
      <rect x="3" y="-2" width="4" height="4" rx="2" fill="currentColor" opacity="0.2"/>
      <rect x="3" y="-2" width="4" height="4" rx="2" stroke="currentColor" strokeWidth="1.5" fill="none"/>
      <!-- Socket holes -->
      <circle cx="4.5" cy="-0.8" r="0.3" fill="currentColor" opacity="0.6"/>
      <circle cx="5.5" cy="-0.8" r="0.3" fill="currentColor" opacity="0.6"/>
      <circle cx="4.5" cy="0.8" r="0.3" fill="currentColor" opacity="0.6"/>
      <circle cx="5.5" cy="0.8" r="0.3" fill="currentColor" opacity="0.6"/>
      
      <!-- Connection cable -->
      <path d="M-3 0 Q0 -2 3 0" stroke="currentColor" strokeWidth="2.5" fill="none" strokeLinecap="round"/>
      <path d="M-3 0 Q0 -2 3 0" stroke="white" strokeWidth="1.5" fill="none" strokeLinecap="round" opacity="0.3"/>
      
      <!-- Data flow indicators -->
      <circle cx="-1.5" cy="-1.2" r="0.4" fill="currentColor" opacity="0.7">
        <animate attributeName="opacity" values="0.3;0.9;0.3" dur="1.5s" repeatCount="indefinite"/>
      </circle>
      <circle cx="0" cy="-1.8" r="0.4" fill="currentColor" opacity="0.5">
        <animate attributeName="opacity" values="0.3;0.9;0.3" dur="1.5s" begin="0.3s" repeatCount="indefinite"/>
      </circle>
      <circle cx="1.5" cy="-1.2" r="0.4" fill="currentColor" opacity="0.3">
        <animate attributeName="opacity" values="0.3;0.9;0.3" dur="1.5s" begin="0.6s" repeatCount="indefinite"/>
      </circle>
    </g>

    <!-- Interaction - Communication flow -->
    <g id="interaction">
      <!-- User/Actor 1 -->
      <circle cx="-5" cy="-3" r="1.8" fill="currentColor" opacity="0.15"/>
      <circle cx="-5" cy="-3" r="1.8" stroke="currentColor" strokeWidth="1.2" fill="none"/>
      <circle cx="-5" cy="-3.5" r="0.6" fill="currentColor" opacity="0.4"/>
      <path d="M-6.2 -2 Q-5 -1.8 -3.8 -2" stroke="currentColor" strokeWidth="1" fill="none"/>
      <!-- System/Actor 2 -->
      <rect x="3.5" y="-4.5" width="3" height="3" rx="0.5" fill="currentColor" opacity="0.15"/>
      <rect x="3.5" y="-4.5" width="3" height="3" rx="0.5" stroke="currentColor" strokeWidth="1.2" fill="none"/>
      <rect x="4" y="-4" width="2" height="0.5" rx="0.25" fill="currentColor" opacity="0.4"/>
      <rect x="4" y="-3.2" width="1.5" height="0.5" rx="0.25" fill="currentColor" opacity="0.4"/>
      <rect x="4" y="-2.4" width="1.8" height="0.5" rx="0.25" fill="currentColor" opacity="0.4"/>
      <!-- Lifelines -->
      <path d="M-5 -1 L-5 5 M5 -1.5 L5 5" stroke="currentColor" strokeWidth="1" strokeDasharray="2,1" opacity="0.5"/>
      <!-- Messages -->
      <path d="M-3 0 L3 0" stroke="currentColor" strokeWidth="1.5"/>
      <path d="M2.2 -0.4 L3 0 L2.2 0.4" stroke="currentColor" strokeWidth="1.2" fill="none" strokeLinecap="round"/>
      <text x="0" y="-0.5" text-anchor="middle" font-size="2" fill="currentColor" opacity="0.7">request</text>
      <path d="M3 2 L-3 2" stroke="currentColor" strokeWidth="1.5"/>
      <path d="M-2.2 1.6 L-3 2 L-2.2 2.4" stroke="currentColor" strokeWidth="1.2" fill="none" strokeLinecap="round"/>
      <text x="0" y="1.5" text-anchor="middle" font-size="2" fill="currentColor" opacity="0.7">response</text>
      <!-- Activation boxes -->
      <rect x="-5.3" y="-0.5" width="0.6" height="3" fill="currentColor" opacity="0.3"/>
      <rect x="4.7" y="1.5" width="0.6" height="2" fill="currentColor" opacity="0.3"/>
    </g>

    <!-- Behavior - State diagram -->
    <g id="behavior">
      <circle cx="-3" cy="-1" r="2" fill="currentColor" opacity="0.15"/>
      <circle cx="-3" cy="-1" r="2" stroke="currentColor" strokeWidth="1.2" fill="none"/>
      <circle cx="3" cy="-1" r="2" fill="currentColor" opacity="0.15"/>
      <circle cx="3" cy="-1" r="2" stroke="currentColor" strokeWidth="1.2" fill="none"/>
      <circle cx="0" cy="3" r="2" fill="currentColor" opacity="0.15"/>
      <circle cx="0" cy="3" r="2" stroke="currentColor" strokeWidth="1.2" fill="none"/>
      <path d="M-1 -1 L1 -1" stroke="currentColor" strokeWidth="1.2"/>
      <path d="M0.5 -1.5 L1 -1 L0.5 -0.5" stroke="currentColor" strokeWidth="1" fill="none" strokeLinecap="round"/>
      <path d="M-2 1 L-1 2" stroke="currentColor" strokeWidth="1.2"/>
      <path d="M2 1 L1 2" stroke="currentColor" strokeWidth="1.2"/>
      <circle cx="-3" cy="-1" r="0.6" fill="currentColor"/>
      <circle cx="3" cy="-1" r="0.6" fill="currentColor"/>
      <circle cx="0" cy="3" r="0.6" fill="currentColor"/>
    </g>

    <!-- Event - Broadcasting hub -->
    <g id="event">
      <circle cx="0" cy="0" r="2.5" fill="currentColor" opacity="0.2"/>
      <circle cx="0" cy="0" r="2.5" stroke="currentColor" strokeWidth="1.5" fill="none"/>
      <circle cx="0" cy="0" r="1" fill="currentColor"/>
      <circle cx="0" cy="0" r="4" fill="none" stroke="currentColor" strokeWidth="0.8" opacity="0.4"/>
      <circle cx="0" cy="0" r="5.5" fill="none" stroke="currentColor" strokeWidth="0.6" opacity="0.3"/>
      <path d="M0 -6 L0 -4 M4.2 -4.2 L3 -3 M6 0 L4 0 M4.2 4.2 L3 3 M0 6 L0 4 M-4.2 4.2 L-3 3 M-6 0 L-4 0 M-4.2 -4.2 L-3 -3" 
            stroke="currentColor" strokeWidth="1" strokeLinecap="round"/>
      <circle cx="0" cy="-6" r="0.8" fill="currentColor" opacity="0.6"/>
      <circle cx="6" cy="0" r="0.8" fill="currentColor" opacity="0.6"/>
      <circle cx="0" cy="6" r="0.8" fill="currentColor" opacity="0.6"/>
      <circle cx="-6" cy="0" r="0.8" fill="currentColor" opacity="0.6"/>
    </g>

    <!-- Policy - Shield with lock -->
    <g id="policy">
      <!-- Shield -->
      <path d="M0 -7 L-4.5 -4 L-4.5 1 Q-4.5 4.5 0 6 Q4.5 4.5 4.5 1 L4.5 -4 Z" fill="currentColor" opacity="0.15"/>
      <path d="M0 -7 L-4.5 -4 L-4.5 1 Q-4.5 4.5 0 6 Q4.5 4.5 4.5 1 L4.5 -4 Z" stroke="currentColor" strokeWidth="1.8" fill="none"/>
      
      <!-- Lock symbol -->
      <rect x="-1.5" y="-0.5" width="3" height="2.5" rx="0.5" fill="currentColor" opacity="0.3"/>
      <rect x="-1.5" y="-0.5" width="3" height="2.5" rx="0.5" stroke="currentColor" strokeWidth="1.2" fill="none"/>
      <!-- Lock shackle -->
      <path d="M-1 -0.5 L-1 -1.5 Q-1 -2.5 0 -2.5 Q1 -2.5 1 -1.5 L1 -0.5" stroke="currentColor" strokeWidth="1.2" fill="none"/>
      <!-- Keyhole -->
      <circle cx="0" cy="0.5" r="0.4" fill="currentColor" opacity="0.8"/>
      <rect x="-0.2" y="0.7" width="0.4" height="0.8" rx="0.2" fill="currentColor" opacity="0.8"/>
      
      <!-- Security elements -->
      <circle cx="-2.5" cy="-2" r="0.3" fill="currentColor" opacity="0.6"/>
      <circle cx="2.5" cy="-2" r="0.3" fill="currentColor" opacity="0.6"/>
      <circle cx="-2" cy="2.5" r="0.3" fill="currentColor" opacity="0.6"/>
      <circle cx="2" cy="2.5" r="0.3" fill="currentColor" opacity="0.6"/>
    </g>

    <!-- NFR - Performance gauge -->
    <g id="nfr">
      <path d="M-5 1.5 Q-5 -4.5 0 -4.5 Q5 -4.5 5 1.5" stroke="currentColor" strokeWidth="1.5" fill="none"/>
      <path d="M-5 1.5 Q-5 -4.5 0 -4.5 Q5 -4.5 5 1.5" fill="currentColor" opacity="0.1"/>
      <path d="M-4.3 -2.5 L-3.8 -2 M-2.5 -4 L-2.2 -3.5 M0 -4.5 L0 -4 M2.5 -4 L2.2 -3.5 M4.3 -2.5 L3.8 -2" 
            stroke="currentColor" strokeWidth="0.8" opacity="0.6"/>
      <path d="M0 0.5 L2.5 -1.5" stroke="currentColor" strokeWidth="1.5" strokeLinecap="round"/>
      <circle cx="0" cy="0.5" r="1" fill="currentColor"/>
      <rect x="-5.5" y="2.5" width="1.5" height="0.8" rx="0.4" fill="currentColor" opacity="0.4"/>
      <rect x="-1.5" y="2.5" width="3" height="0.8" rx="0.4" fill="currentColor" opacity="0.6"/>
      <rect x="4" y="2.5" width="1.5" height="0.8" rx="0.4" fill="currentColor" opacity="0.8"/>
    </g>

    <!-- Infra - Server rack -->
    <g id="infra">
      <!-- Server rack cabinet -->
      <rect x="-5" y="-6" width="10" height="12" rx="1" fill="currentColor" opacity="0.1"/>
      <rect x="-5" y="-6" width="10" height="12" rx="1" stroke="currentColor" strokeWidth="1.5" fill="none"/>
      
      <!-- Server units (stacked) -->
      <rect x="-4" y="-5" width="8" height="1.5" rx="0.3" fill="currentColor" opacity="0.3"/>
      <rect x="-4" y="-5" width="8" height="1.5" rx="0.3" stroke="currentColor" strokeWidth="1" fill="none"/>
      <rect x="-4" y="-3" width="8" height="1.5" rx="0.3" fill="currentColor" opacity="0.3"/>
      <rect x="-4" y="-3" width="8" height="1.5" rx="0.3" stroke="currentColor" strokeWidth="1" fill="none"/>
      <rect x="-4" y="-1" width="8" height="1.5" rx="0.3" fill="currentColor" opacity="0.3"/>
      <rect x="-4" y="-1" width="8" height="1.5" rx="0.3" stroke="currentColor" strokeWidth="1" fill="none"/>
      <rect x="-4" y="1" width="8" height="1.5" rx="0.3" fill="currentColor" opacity="0.3"/>
      <rect x="-4" y="1" width="8" height="1.5" rx="0.3" stroke="currentColor" strokeWidth="1" fill="none"/>
      <rect x="-4" y="3" width="8" height="1.5" rx="0.3" fill="currentColor" opacity="0.3"/>
      <rect x="-4" y="3" width="8" height="1.5" rx="0.3" stroke="currentColor" strokeWidth="1" fill="none"/>
      
      <!-- Status LEDs -->
      <circle cx="-3.5" cy="-4.2" r="0.2" fill="#22c55e"/>
      <circle cx="-3.5" cy="-2.2" r="0.2" fill="#22c55e"/>
      <circle cx="-3.5" cy="-0.2" r="0.2" fill="#22c55e"/>
      <circle cx="-3.5" cy="1.8" r="0.2" fill="#eab308"/>
      <circle cx="-3.5" cy="3.8" r="0.2" fill="#ef4444"/>
      
      <!-- Ventilation grilles -->
      <path d="M-2 -4.7 L2 -4.7 M-2 -4.3 L2 -4.3" stroke="currentColor" strokeWidth="0.5" opacity="0.5"/>
      <path d="M-2 -2.7 L2 -2.7 M-2 -2.3 L2 -2.3" stroke="currentColor" strokeWidth="0.5" opacity="0.5"/>
      <path d="M-2 -0.7 L2 -0.7 M-2 -0.3 L2 -0.3" stroke="currentColor" strokeWidth="0.5" opacity="0.5"/>
      <path d="M-2 1.3 L2 1.3 M-2 1.7 L2 1.7" stroke="currentColor" strokeWidth="0.5" opacity="0.5"/>
      <path d="M-2 3.3 L2 3.3 M-2 3.7 L2 3.7" stroke="currentColor" strokeWidth="0.5" opacity="0.5"/>
      
      <!-- Network ports -->
      <rect x="2.5" y="-4.5" width="1" height="0.5" rx="0.1" fill="currentColor" opacity="0.6"/>
      <rect x="2.5" y="-2.5" width="1" height="0.5" rx="0.1" fill="currentColor" opacity="0.6"/>
      <rect x="2.5" y="-0.5" width="1" height="0.5" rx="0.1" fill="currentColor" opacity="0.6"/>
      <rect x="2.5" y="1.5" width="1" height="0.5" rx="0.1" fill="currentColor" opacity="0.6"/>
      <rect x="2.5" y="3.5" width="1" height="0.5" rx="0.1" fill="currentColor" opacity="0.6"/>
    </g>

    <!-- Glossary - Book -->
    <g id="glossary">
      <rect x="-5" y="-6" width="10" height="11" rx="1" fill="currentColor" opacity="0.15"/>
      <rect x="-5" y="-6" width="10" height="11" rx="1" stroke="currentColor" strokeWidth="1.2" fill="none"/>
      <rect x="2.5" y="-6" width="1.5" height="5" fill="currentColor" opacity="0.4"/>
      <path d="M3.25 -1 L2.5 -1.5 L4 -1.5 Z" fill="currentColor" opacity="0.4"/>
      <path d="M-3.5 -4 L3 -4 M-3.5 -2.5 L1.5 -2.5 M-3.5 -1 L2.5 -1 M-3.5 0.5 L1 0.5 M-3.5 2 L2 2 M-3.5 3.5 L2.5 3.5" 
            stroke="currentColor" strokeWidth="0.6" opacity="0.6"/>
      <rect x="-4" y="-4.3" width="1.5" height="0.6" rx="0.3" fill="currentColor" opacity="0.3"/>
      <rect x="-4" y="-1.3" width="1.2" height="0.6" rx="0.3" fill="currentColor" opacity="0.3"/>
      <rect x="-4" y="1.7" width="1.4" height="0.6" rx="0.3" fill="currentColor" opacity="0.3"/>
      <path d="M4 4 L4 3.5 L4.5 4 Z" fill="currentColor" opacity="0.2"/>
    </g>

    <!-- Directive - Compass/navigation -->
    <g id="directive">
      <!-- Compass circle -->
      <circle cx="0" cy="0" r="6" fill="currentColor" opacity="0.1"/>
      <circle cx="0" cy="0" r="6" stroke="currentColor" strokeWidth="1.8" fill="none"/>
      
      <!-- Inner compass circle -->
      <circle cx="0" cy="0" r="4" fill="currentColor" opacity="0.05"/>
      <circle cx="0" cy="0" r="4" stroke="currentColor" strokeWidth="1" fill="none" opacity="0.5"/>
      
      <!-- Compass needle -->
      <path d="M0 -4 L-1 0 L0 4 L1 0 Z" fill="currentColor" opacity="0.7"/>
      <!-- North point (red) -->
      <path d="M0 -4 L-0.8 -0.5 L0 0 L0.8 -0.5 Z" fill="#ef4444" opacity="0.9"/>
      <!-- South point (white/light) -->
      <path d="M0 4 L-0.8 0.5 L0 0 L0.8 0.5 Z" fill="white" stroke="currentColor" strokeWidth="0.5"/>
      
      <!-- Cardinal directions -->
      <text x="0" y="-7.5" text-anchor="middle" font-family="sans-serif" font-size="3" font-weight="bold" fill="currentColor">N</text>
      <text x="7.5" y="1" text-anchor="middle" font-family="sans-serif" font-size="3" font-weight="bold" fill="currentColor">E</text>
      <text x="0" y="9" text-anchor="middle" font-family="sans-serif" font-size="3" font-weight="bold" fill="currentColor">S</text>
      <text x="-7.5" y="1" text-anchor="middle" font-family="sans-serif" font-size="3" font-weight="bold" fill="currentColor">W</text>
      
      <!-- Compass ticks -->
      <path d="M0 -6 L0 -5.5 M4.24 -4.24 L3.89 -3.89 M6 0 L5.5 0 M4.24 4.24 L3.89 3.89 M0 6 L0 5.5 M-4.24 4.24 L-3.89 3.89 M-6 0 L-5.5 0 M-4.24 -4.24 L-3.89 -3.89" 
            stroke="currentColor" strokeWidth="1" opacity="0.6"/>
      
      <!-- Center pivot -->
      <circle cx="0" cy="0" r="0.8" fill="currentColor"/>
      <circle cx="0" cy="0" r="0.4" fill="white"/>
    </g>
  </defs>
</svg> 